<svg xmlns="http://www.w3.org/2000/svg" width="32" height="32"><g transform="translate(-20.5 -20.5)"><circle cx="2.851" cy="2.851" r="2.851" transform="translate(33.533 33.765)"/><path d="M39.932 29.634h-7.156a3.221 3.221 0 00-3.491 3.491v7.156a3.65 3.65 0 00.989 2.618 3.726 3.726 0 002.56.931h7.1a3.622 3.622 0 002.56-.931 3.417 3.417 0 00.989-2.56v-7.214a3.834 3.834 0 00-.931-2.56 3.522 3.522 0 00-2.62-.931zm-3.547 11.4a4.422 4.422 0 010-8.844 4.422 4.422 0 110 8.844zm4.6-7.971a1.047 1.047 0 111.047-1.047 1.043 1.043 0 01-1.053 1.051z"/><path d="M36.5 20.5a16 16 0 1016 16 15.991 15.991 0 00-16-16zm8.494 19.782a5.134 5.134 0 01-1.455 3.724 5.008 5.008 0 01-3.665 1.338h-7.04a5.259 5.259 0 01-3.665-1.338 4.909 4.909 0 01-1.455-3.724v-7.157a4.825 4.825 0 015.062-5.062h7.214a5 5 0 013.665 1.455 4.919 4.919 0 011.338 3.665z"/></g></svg>