<svg xmlns="http://www.w3.org/2000/svg" width="193.333" height="76.447"><defs><style>.d{fill:#da1245}</style></defs><path fill="#1bbdef" d="M180.26 0h6.611v76.078h-6.611z"/><path fill="#fbcd0d" d="M186.723 0h6.611v76.078h-6.611z"/><path d="M181.405 63.448c.628 0 1.551.037 2.807.074 1.256.074 2.179.074 2.807.074h1.847a5.792 5.792 0 012.364.332 3.009 3.009 0 011.366 2.068 12.265 12.265 0 01.222 2.659c0 2.068-.3 3.471-.923 4.1-.48.517-1.44.739-2.918.739h-1.883c-.628 0-1.81.037-3.508.074-.443 0-1.108.037-1.994.074h-.148c-.111 0-.185-.074-.185-.222v-1.994c0-.148.037-.222.148-.222.813 0 2.068.037 3.693.074 1.662.037 2.881.074 3.693.074a2.138 2.138 0 001.883-.7 3.835 3.835 0 00.443-2.179 3.959 3.959 0 00-.369-2.031 1.746 1.746 0 00-1.662-.776c-.849 0-2.142 0-3.841.037s-2.991.037-3.841.037c-.074 0-.148-.074-.148-.259v-.554a3.193 3.193 0 00.037-.406 2.645 2.645 0 00-.037-.48c0-.222-.037-.369-.037-.48-.001-.039.073-.113.184-.113zm10.82-11.744c.258 0 .369.074.369.259v2.067c0 .185-.591.628-1.736 1.366a15.2 15.2 0 01-2.105 1.219c-.406.185-.665.332-.7.332a.919.919 0 00-.443.628v.591c0 .739.074 1.108.259 1.108.48 0 1.256-.037 2.216-.074 1-.037 1.736-.074 2.216-.074.185 0 .258.074.258.222a3.017 3.017 0 01-.037.517c0 .222-.037.406-.037.517a2.649 2.649 0 00.037.48c0 .222.037.369.037.48 0 .148-.074.222-.185.222q-.886 0-2.659-.111t-2.659-.111c-.628 0-1.551.037-2.807.111s-2.179.111-2.807.111c-.111 0-.185-.074-.185-.222a2.648 2.648 0 01.037-.48c0-.222.037-.369.037-.517a2.65 2.65 0 00-.037-.48c0-.222-.037-.369-.037-.48 0-.148.037-.222.148-.222.443 0 1.145 0 2.068.037s1.625.037 2.068.037a1.039 1.039 0 00.406-.037c.111-.037.148-.185.148-.369a4.33 4.33 0 00-.591-2.548 5.021 5.021 0 00-1.883-1.293c-.739-.3-1.44-.591-2.179-.886a.456.456 0 01-.185-.3 5.042 5.042 0 01-.037-.96c0-.665.074-1 .259-1a12.8 12.8 0 011.33.406 9.226 9.226 0 012.4 1.256 6.907 6.907 0 011.4 1.366c.111.148.222.222.3.222a8.116 8.116 0 001.44-.739 15.86 15.86 0 001.81-1.145c.406-.369 1.071-.886 1.92-1.588.036.119.072.082.146.082zm.296-10.673c.037 0 .074.037.074.148a3.013 3.013 0 01-.037.517c0 .222-.037.406-.037.517a3.652 3.652 0 00.037.554c0 .259.037.443.037.554a.293.293 0 01-.185.3c-.369.185-1.514.739-3.4 1.625-.185.074-.3.3-.369.665v.812a12.068 12.068 0 00.037 1.477c0 .111.148.185.406.185.369 0 .96-.037 1.7-.074s1.33-.074 1.7-.074a.174.174 0 01.185.185 3.652 3.652 0 01-.037.554 3.659 3.659 0 00-.037.554 2.654 2.654 0 00.037.48c0 .222.037.369.037.48 0 .148-.074.222-.185.222-.591 0-1.514-.037-2.7-.111-1.219-.074-2.105-.111-2.7-.111-1.7 0-3.508.074-5.466.222h-.148c-.111 0-.148-.111-.148-.369 0-.517 0-1.293-.037-2.29-.037-1.034-.037-1.773-.037-2.29a5.4 5.4 0 01.849-3.176 3.09 3.09 0 012.7-1.33 3.788 3.788 0 011.883.369 3.565 3.565 0 011.366 1.4c.074.111.148.185.185.185.074 0 .776-.369 2.142-1.071a19.487 19.487 0 012.148-1.109zm-7.349 2.474a2.008 2.008 0 00-1.957.923 5.548 5.548 0 00-.369 2.474c0 .96.074 1.44.222 1.477.3.037 1.071.074 2.327.074h1.551a.372.372 0 00.037-.111c0-.111.037-.3.037-.517.037-.554.037-1.182.037-1.847 0-1.66-.63-2.473-1.885-2.473zm7.312-14.735q.111 0 .111.222a2.452 2.452 0 01-.037.48c0 .222-.037.369-.037.48a3.017 3.017 0 00.037.517c0 .222.037.406.037.517 0 .185-.406.369-1.219.628s-1.219.517-1.256.776v4.838c0 .222.443.443 1.256.7s1.219.443 1.219.554v1.994c0 .111-.037.185-.111.185a1.583 1.583 0 01-.369-.111l-5.429-2.179c-.443-.185-1.7-.739-3.767-1.7a11.923 11.923 0 00-1.551-.665c-.222-.074-.3-.148-.3-.222a3.02 3.02 0 01.037-.517 2.808 2.808 0 00.037-.517 2.65 2.65 0 00-.037-.48 2.652 2.652 0 01-.037-.48c0-.037.111-.111.3-.222q.443-.222 4.875-2.105c4.099-1.807 6.204-2.693 6.241-2.693zm-4.469 4.173a12.015 12.015 0 00-2.105.812 22.825 22.825 0 00-2.364 1.108c2.844 1.219 4.358 1.847 4.469 1.847q.277 0 .332-.665v-1.81c0-.886-.11-1.292-.332-1.292zm4.395-7.645c.111 0 .185.074.185.259a2.654 2.654 0 01-.037.48c0 .222-.037.369-.037.48a3.017 3.017 0 00.037.517c0 .222.037.369.037.48 0 .148-.074.222-.185.222q-.942 0-2.77-.111-1.884-.111-2.77-.111c-.591 0-1.514.037-2.7.111s-2.105.111-2.7.111c-.148 0-.185-.074-.185-.222a3.018 3.018 0 01.037-.517c0-.222.037-.406.037-.517a2.648 2.648 0 00-.037-.48c0-.222-.037-.369-.037-.48 0-.148.037-.222.148-.222.591 0 1.514.037 2.733.074s2.105.074 2.733.074 1.551-.037 2.807-.074c1.153-.037 2.076-.074 2.704-.074zm-11.001-13.11c.628 0 1.551.037 2.807.074s2.179.074 2.807.074h5.318c.185 0 .259.074.259.222a1.989 1.989 0 01-.037.406c0 .185-.037.3-.037.406a2.116 2.116 0 00.037.443c0 .185.037.332.037.443s-.074.222-.259.369c-1.588 1.293-3.915 3.25-7.017 5.872a6.052 6.052 0 00-.776.7c0 .074.111.074.332.074.813 0 2.068 0 3.73-.037s2.917-.037 3.73-.037c.185 0 .259.074.259.185a2.65 2.65 0 01-.037.48c0 .222-.037.369-.037.48a2.645 2.645 0 00.037.48c0 .222.037.369.037.48 0 .148-.037.222-.148.222-.591 0-1.477-.037-2.7-.111a47.554 47.554 0 00-2.7-.111c-.665 0-1.847.037-3.545.074-.443 0-1.108.037-1.994.074h-.103c-.074 0-.111-.074-.148-.222a6.564 6.564 0 00-.037-.923c0-.074-.037-.259-.074-.48a2.452 2.452 0 01-.037-.48.778.778 0 01.222-.3c1.7-1.366 4.247-3.472 7.608-6.278.148-.111.259-.259.369-.332a11.381 11.381 0 00-1.551-.074c-.7 0-1.736.037-3.139.074-1.4.074-2.437.074-3.139.074-.185 0-.259-.074-.259-.185a2.65 2.65 0 01.037-.48c0-.222.037-.369.037-.48a3.018 3.018 0 00-.037-.517c0-.222-.037-.406-.037-.517s.07-.142.185-.142zM190.97 1.81a2.125 2.125 0 01.369.074.836.836 0 01.369.111c.185 0 .48.074.849.111a.2.2 0 01.148.222 1.274 1.274 0 01-.037.332 25.952 25.952 0 00-.148 3.4c0 .443 0 1.108.037 1.957.037.886.037 1.514.037 1.957 0 .185-.074.3-.222.3-.591 0-1.514-.037-2.733-.111s-2.105-.111-2.733-.111-1.773.037-3.435.111c-.443 0-1.071.037-1.92.111h-.111c-.111 0-.185-.074-.185-.222 0-.406 0-1.034.037-1.883s.037-1.477.037-1.883 0-1-.037-1.81-.037-1.4-.037-1.81q0-.443.222-.443c.7-.111 1.145-.185 1.33-.185a.174.174 0 01.185.185c0 .517-.037 1.256-.074 2.29s-.074 1.81-.074 2.327a1.551 1.551 0 00.185.923 1.409 1.409 0 00.886.185h1.219a1.986 1.986 0 00.591-.037c.185-.037.259-.222.259-.48V6.84c0-1.182-.037-2.216-.074-3.139 0-.369-.037-.776-.074-1.293 0-.111.037-.185.148-.185.185 0 .443.037.776.074.369.037.628.074.812.074.111 0 .148.074.148.259 0 .074-.037.332-.074.812-.037.332-.037 1.071-.037 2.253 0 1 0 1.588.037 1.883a.373.373 0 00.332.406h1.81c.554 0 .923-.111 1.034-.3a2.167 2.167 0 00.185-1.108v-1c0-.406-.074-1.588-.185-3.508V1.92c-.074-.036 0-.11.148-.11z" fill="#f3f4f4"/><path class="d" d="M59.717 76.078H41.769l-2.918-12.7L29.8 76.447l-9.2-13.074-3.028 12.7H0L20.164 0h19.389zM35.564 49.709q-3.878-16.951-5.8-32.315h-.222Q27.5 33.182 23.784 49.709l5.8 9.639z"/><path d="M50.965 51.186H37.227l-7.5 11.855-7.5-11.855H8.494l-6.278 23.3h13.7l3.878-15.954 9.934 14.4 9.934-14.4 3.88 15.954h13.664z" fill="#fff"/><path d="M73.308 76.189a9.549 9.549 0 01-8.162-3.952 15.908 15.908 0 01-2.881-9.6 15.353 15.353 0 012.918-9.565 9.9 9.9 0 018.346-3.841 9.274 9.274 0 018.236 4.1 16.271 16.271 0 012.77 9.344 15.755 15.755 0 01-2.881 9.6c-1.883 2.621-4.688 3.914-8.346 3.914zm.148-21.9c-3.213 0-4.8 2.807-4.8 8.457s1.588 8.494 4.8 8.494c3.1 0 4.653-2.807 4.653-8.457 0-5.688-1.551-8.494-4.653-8.494zm31.465-4.617v5.17h-6.467v20.94h-6.2v-20.94h-6.5v-5.17zm12.446 26.517a9.549 9.549 0 01-8.162-3.952 15.908 15.908 0 01-2.881-9.6 15.353 15.353 0 012.918-9.565 9.9 9.9 0 018.346-3.841 9.274 9.274 0 018.236 4.1 16.271 16.271 0 012.77 9.344 15.755 15.755 0 01-2.881 9.6c-1.883 2.621-4.688 3.914-8.346 3.914zm.185-21.9c-3.213 0-4.8 2.807-4.8 8.457s1.588 8.494 4.8 8.494c3.1 0 4.653-2.807 4.653-8.457 0-5.688-1.551-8.494-4.653-8.494zm21.234 11.152v10.341h-6.167v-26.11h11.486a14.883 14.883 0 015.1.739 6.389 6.389 0 013.176 2.7 7.923 7.923 0 011.256 4.395 6.966 6.966 0 01-4.542 6.758l4.838 11.559h-6.758l-4.025-10.341h-4.358zm0-11.116v6.647h3.767a9.325 9.325 0 002.659-.259 3.055 3.055 0 001.477-1.145 3.271 3.271 0 00.665-2.031 3.137 3.137 0 00-.665-1.957 2.815 2.815 0 00-1.4-1.071 12.946 12.946 0 00-2.881-.185zm37.633 1.109l-5.207 1.736a4.259 4.259 0 00-4.432-3.1c-2.437 0-3.619.776-3.619 2.364a2.148 2.148 0 00.665 1.588 6.784 6.784 0 003.065 1.145 30.8 30.8 0 015.835 1.625 7.7 7.7 0 013.139 2.659 6.986 6.986 0 011.256 4.1 8.224 8.224 0 01-2.733 6.131c-1.81 1.736-4.506 2.585-8.088 2.585a12.642 12.642 0 01-6.832-1.81 8.657 8.657 0 01-3.73-5.429l5.65-1.293q.942 3.656 5.318 3.656a4.982 4.982 0 003.139-.812 2.388 2.388 0 001.034-1.957 1.967 1.967 0 00-.923-1.773 11.9 11.9 0 00-3.619-1.182c-3.324-.7-5.687-1.625-7.128-2.844a6.5 6.5 0 01-2.105-5.244 7.72 7.72 0 012.548-5.872 9.665 9.665 0 016.869-2.4c5.134-.041 8.417 2.027 9.898 6.127z"/><path class="d" d="M78.885.406V9.38H67.658v36.414H56.873V9.38h-11.3V.406zm23.673 0l14.218 45.425h-11.449l-2.807-9.344h-14.7l-2.844 9.344h-9.341L90.186.406h12.372zm-12.15 27.661h9.639L95.283 12.15zm41.953-.258v17.985h-10.71V.369h19.98a25.264 25.264 0 018.863 1.293 11.619 11.619 0 015.54 4.69 13.738 13.738 0 012.179 7.608q0 8.2-7.866 11.744l8.383 20.09h-11.744l-6.98-17.985h-7.645zm0-19.352v11.559h6.537a17.4 17.4 0 004.653-.447 5.2 5.2 0 002.585-1.994 5.978 5.978 0 001.145-3.545 5.4 5.4 0 00-1.145-3.4 4.579 4.579 0 00-2.474-1.847 24.373 24.373 0 00-4.986-.332zM177.048.406v45.425h-10.6V.406h10.6z"/></svg>