<svg xmlns="http://www.w3.org/2000/svg" width="40" height="40"><path d="M5.858 34.142A20 20 0 1134.142 5.858 20 20 0 115.858 34.142zM2 20A18 18 0 1020 2 18.02 18.02 0 002 20zm19.962 12A13.961 13.961 0 018 18.039v-6.346a1.281 1.281 0 011.269-1.27h5.077a1.281 1.281 0 011.27 1.27v5.077a1.281 1.281 0 01-1.27 1.269h-1.269a8.768 8.768 0 008.885 8.885v-1.27a1.28 1.28 0 011.269-1.269h5.077a1.28 1.28 0 011.269 1.269v5.078A1.28 1.28 0 0128.308 32zm-1.269-12.692V9.154h2.538V15l7.961-8L33 8.808l-8 7.962h5.846v2.538z" fill="#fff"/></svg>