<svg xmlns="http://www.w3.org/2000/svg" width="101.004" height="24"><defs><style>.b{fill:#fff}</style></defs><path d="M21.559 8.327A7.871 7.871 0 0013.688.456H8.115A8.112 8.112 0 00.003 8.568v3.5a8.114 8.114 0 005.208 7.575v2.749a.788.788 0 00.51.735.776.776 0 00.272.049.788.788 0 00.595-.27l.206-.238 2.158-2.487h4.736a7.871 7.871 0 007.871-7.871V8.329z" fill="#6e64c3"/><path class="b" d="M8.594 8.85a1.124 1.124 0 00.236-1.577L7.644 5.679a.864.864 0 00-1.227-.163c-.219.172-.464.364-.7.545a1.654 1.654 0 00-.533 1.883 13.963 13.963 0 008.03 8.138 1.654 1.654 0 002.035-.721l.456-.8a.864.864 0 00-.269-1.144l-1.451-.975a1.126 1.126 0 00-1.584.342l-.136.221a.422.422 0 01-.59.131 12.045 12.045 0 01-3.489-3.5.422.422 0 01.107-.573zm7.605 2.057a.434.434 0 01-.434-.434 5.187 5.187 0 00-5.181-5.181.434.434 0 010-.868 6.056 6.056 0 016.049 6.049.434.434 0 01-.434.434z"/><path class="b" d="M14.839 10.907a.434.434 0 01-.434-.434 3.825 3.825 0 00-3.821-3.821.434.434 0 110-.868 4.694 4.694 0 014.689 4.689.434.434 0 01-.434.434z"/><path class="b" d="M13.503 10.907a.434.434 0 01-.434-.434 2.488 2.488 0 00-2.485-2.485.434.434 0 110-.868 3.357 3.357 0 013.353 3.353.434.434 0 01-.434.434z"/><path class="b" d="M21.559 8.327A7.871 7.871 0 0013.688.456H8.115A8.112 8.112 0 00.003 8.568v3.5c0 3.457 1.593 6.039 4.639 7.208l.237 3.94a.788.788 0 00.51.735.777.777 0 00.272.049.788.788 0 00.595-.27l3.235-3.55h4.2a7.871 7.871 0 007.871-7.871V8.328zm-1.832 3.981a6.046 6.046 0 01-6.039 6.039h-4.2l-3.235 3.762a.155.155 0 01-.273-.1v-4.034a6.29 6.29 0 01-4.147-5.906v-3.5a6.287 6.287 0 016.28-6.28h5.573a6.046 6.046 0 016.039 6.039v3.981z"/><g transform="translate(39 .484)"><circle class="b" cx="11.346" cy="11.346" r="11.346"/><circle cx="9.545" cy="9.545" transform="translate(1.801 1.801)" fill="#039be5" r="9.545"/><path class="b" d="M5.117 11.024l11.01-4.245c.511-.185.957.125.792.9l-1.875 8.824c-.139.626-.511.778-1.032.483l-2.855-2.1-1.376 1.327a.72.72 0 01-.576.281l.2-2.905 5.291-4.78c.23-.2-.051-.317-.355-.115L7.806 12.81l-2.819-.879c-.612-.194-.625-.612.129-.907z"/></g><path class="b" d="M79.135 21.969l1.545-5.641a10.89 10.89 0 119.436 5.452 10.88 10.88 0 01-5.2-1.325zm6.04-3.484l.331.2a9.038 9.038 0 004.607 1.261 9.05 9.05 0 10-7.667-4.24l.215.342-.915 3.339zm0 0"/><path d="M79.514 21.588l1.491-5.446a10.512 10.512 0 119.109 5.264 10.51 10.51 0 01-5.023-1.279zm0 0" fill="#64b161"/><path class="b" d="M79.135 21.969l1.545-5.641a10.89 10.89 0 119.436 5.452 10.88 10.88 0 01-5.2-1.325zm6.04-3.484l.331.2a9.038 9.038 0 004.607 1.261 9.05 9.05 0 10-7.667-4.24l.215.342-.915 3.339zm0 0"/><path d="M87.394 6.335c-.2-.453-.418-.462-.612-.47-.159-.007-.34-.006-.521-.006a1 1 0 00-.725.34 3.05 3.05 0 00-.953 2.269 5.292 5.292 0 001.111 2.814 11.168 11.168 0 004.648 4.107c2.3.906 2.766.726 3.265.681a2.748 2.748 0 001.836-1.293 2.272 2.272 0 00.159-1.294c-.068-.113-.249-.181-.521-.317s-1.61-.794-1.859-.885-.431-.136-.612.136-.7.885-.861 1.066-.318.2-.59.068a7.44 7.44 0 01-2.188-1.35 8.2 8.2 0 01-1.514-1.884c-.159-.272 0-.406.12-.555a8.2 8.2 0 00.68-.93.5.5 0 00-.023-.477c-.069-.137-.597-1.482-.84-2.02zm0 0" fill-rule="evenodd" fill="#fff"/></svg>