<svg xmlns="http://www.w3.org/2000/svg" width="32" height="32"><path d="M9.193 17.338h1.105v5.76h1.164v-5.76h1.164v-.989H9.193zm6.865-4.771a.492.492 0 00.349-.116c.116-.058.116-.175.116-.349V9.134a.444.444 0 00-.116-.291.582.582 0 00-.7 0 .444.444 0 00-.116.291v2.967a.411.411 0 00.465.465zm2.444 5.527a1.369 1.369 0 00-.465.116.782.782 0 00-.407.349v-2.152h-.99v6.749h.989v-.407a1.09 1.09 0 00.407.349 1.7 1.7 0 00.524.116.964.964 0 00.7-.291 1.137 1.137 0 00.233-.815v-2.734a1.476 1.476 0 00-.233-.931.748.748 0 00-.758-.349zm-.058 3.84a2.057 2.057 0 01-.058.349.444.444 0 01-.291.116.35.35 0 01-.233-.058c-.058-.058-.175-.116-.233-.175v-3.083a.8.8 0 01.233-.175c.058-.058.116-.058.233-.058a.444.444 0 01.291.116.841.841 0 01.116.407v2.56zm-3.549.001l-.291.291a.983.983 0 01-.291.116c-.116 0-.175 0-.233-.058s-.058-.116-.058-.233v-3.84h-.989v4.131a.936.936 0 00.175.64.567.567 0 00.524.233 1.123 1.123 0 00.582-.175 2.043 2.043 0 00.582-.465v.524h.989v-4.946h-.989v3.782z"/><path d="M16 0a16 16 0 1016 16A15.991 15.991 0 0016 0zm2.56 7.913h1.105V12.1a.436.436 0 00.058.291.3.3 0 00.233.116.983.983 0 00.291-.116 1.543 1.543 0 00.353-.291V7.971h1.1v5.469h-1.045v-.582a2.537 2.537 0 01-.64.524 1.517 1.517 0 01-.64.175.675.675 0 01-.582-.233 1.32 1.32 0 01-.175-.756V7.913zm-4.131 1.222a1.243 1.243 0 01.465-.989 1.909 1.909 0 011.222-.349 1.677 1.677 0 011.164.407 1.362 1.362 0 01.465 1.047V12.1a1.448 1.448 0 01-.407 1.105 1.639 1.639 0 01-1.222.407 1.585 1.585 0 01-1.164-.407 1.49 1.49 0 01-.465-1.105l-.058-2.967zm-3.025-3.2l.815 2.967h.058l.756-2.967h1.28L12.858 10.3v3.084h-1.28v-2.969l-1.513-4.48zm14.6 15.651a3.625 3.625 0 01-3.604 3.607H10.007A3.625 3.625 0 016.4 21.585v-2.909a3.625 3.625 0 013.607-3.607h12.451a3.625 3.625 0 013.607 3.607v2.909z"/><path d="M21.528 18.036a1.448 1.448 0 00-1.105.407 1.4 1.4 0 00-.407 1.047v2.211a1.369 1.369 0 00.407 1.105 1.245 1.245 0 001.047.407 1.3 1.3 0 001.105-.407 1.637 1.637 0 00.349-1.164v-.233h-1.047v.233a1.252 1.252 0 01-.116.582.492.492 0 01-.349.116.352.352 0 01-.349-.175 1.162 1.162 0 01-.116-.524v-.931h1.92v-1.219a1.678 1.678 0 00-.349-1.105 1.2 1.2 0 00-.99-.35zm.349 1.92h-.873v-.465a.9.9 0 01.116-.465c.058-.116.175-.116.349-.116a.492.492 0 01.349.116.752.752 0 01.116.465l-.058.465z"/></svg>