<svg xmlns="http://www.w3.org/2000/svg" width="40" height="40" viewBox="0 0 40 40"><defs><style>.a{fill:#fff;}</style></defs><path class="a" d="M5.858,34.142A20,20,0,1,1,34.142,5.858,20,20,0,1,1,5.858,34.142ZM2,20A18,18,0,1,0,20,2,18.02,18.02,0,0,0,2,20ZM21.962,32A13.961,13.961,0,0,1,8,18.039V11.693a1.281,1.281,0,0,1,1.269-1.27h5.077a1.281,1.281,0,0,1,1.27,1.27V16.77a1.281,1.281,0,0,1-1.27,1.269H13.077a8.768,8.768,0,0,0,8.885,8.885v-1.27a1.28,1.28,0,0,1,1.269-1.269h5.077a1.28,1.28,0,0,1,1.269,1.269v5.078A1.28,1.28,0,0,1,28.308,32ZM20.693,19.308V9.154h2.538V15l7.961-8L33,8.808,25,16.77h5.846v2.538Z"/></svg>