<svg xmlns="http://www.w3.org/2000/svg" width="134.399" height="50" fill="#fff"><path d="M102.22 5.463l-.969-.184A31.92 31.92 0 0088.43.434C77.662-.274 66.888.02 56.12.358c-7.638.24-14.535 3.024-21.054 6.844-.2.032-.513.155-.568.081-.173-.229 0-.385.252-.448.072-.9-.513-.865-1.152-.865-7.427.012-14.855.008-19.966.008l12.281 1.833-.038.692c-1.381 0-2.763-.01-4.145 0-.942.008-1.757.323-1.759 1.4 0 1.141.867 1.362 1.8 1.256a2.362 2.362 0 012.841 1.433c.712 1.5-.654 1.744-1.166 2.426-1.791 2.389-1.882 5.2-2.118 7.994-1.036.225-1.543-.659-2.287-.957-3.518-1.41-6.656-.055-7.557 3.593a3.711 3.711 0 01-2.072 2.47C4.959 30.957 2.187 35.394.36 40.083c-1.512 3.881 1.982 7.241 6.4 6.787a8.321 8.321 0 014.2.493 5.149 5.149 0 004 .178A10.974 10.974 0 0122 46.9a6.138 6.138 0 003.975-.632 4.22 4.22 0 013.2-.356c2.872-.277 6.144.549 8.069-2.52.9-1.43 2.056-1.486 3.476-1.383 5.769.415 11.537.939 17.314 1.091 2.792.074 4.8.82 5.926 3.588a119.263 119.263 0 00-22.113-.815c-4.081.24-8.26-.048-12.222 1.375 2.731 1.052 5.619.732 8.442.949 12.38.953 24.8 2.43 37.185 1.512 16.221-1.2 32.457.458 48.645-.958.639-.056 1.28-.089 1.967-.136-.278-1.253-1.452-.445-1.9-1.142.095-.078.186-.216.294-.233 6.3-.927 9.752-4.619 10.11-10.882a23.828 23.828 0 00-3.394-13.4 12.527 12.527 0 00-7.832-6.1 69.314 69.314 0 00-6.919-1.711 7.957 7.957 0 01-5.222-2.768c-.486-.068-1.3.008-1.4-.227-.845-1.945-2.836-2.468-4.252-3.685-1.093-.931-2.626-1.46-3.129-3.004zm2.6 35.721a7.258 7.258 0 011.436-.346c6.154-.233 12.34.4 18.464-.69.342-.061.639.163.411 1.284h-20.315c-5.054.626-5.054.626-5.9-2.614a13.043 13.043 0 00-10.426-5.812l-.06.979c2.848.512 5.59 1.22 7.259 3.915.983.863 2.05 1.927 1.476 3.224-.63 1.425-2.4 1.586-3.713 1.593a76.744 76.744 0 01-12.138-.54c-2.036.5-2.786-.385-3.088-2.39a34.57 34.57 0 00-5.239-14.446l-.625-.789q-.056-.648.594-.633l-.044-.051c-.776 1.115-1.36.1-1.853-.264a6.85 6.85 0 00-3.974-1.571c-4.193-.028-8.2-1.3-12.342-1.663-4.633-.4-9.261-1.071-13.934-.509a165.17 165.17 0 0116.738 3.175c1.231.315 2.933.291 3.56 1.093.764.979-.867 2.124-1.123 3.326-.212.995-.575 1.963-.725 2.964-.348 2.32-.607 4.652-.915 7.08a53.417 53.417 0 00-8.224-3.179c-2.888-.757-5.842-1.692-8.783-1.317-4.314.55-6.591-.868-8.174-5.059-1.776-4.7-4.557-5.907-9-5.347a8.541 8.541 0 011.336-5.811c1.385-2.066 3.7-.844 5.553-1.268-.163-.8-1.589-.492-1.052-1.405.261-.444.828-1.241 1.63-.886 3.593 1.59 7.505.9 11.214 1.624 1.058.208 1.469-.265 1.782-1.263.431-1.374.618-2.9 2.018-4.412-.279 1.808-.46 3.14-.7 4.462-.154.85-.2 1.419.981 1.521 4.574.393 9.135.923 13.708 1.329 1.438.128 2.119-.6 1.538-2.055-1.513-3.791-3.115-7.539-5.89-10.634-.325-.024-.714-.08-.7-.464.014-.423.376-.415.707-.3l3.063-.071h5.571v.292h-5.259c1.339 3.48 3.848 6.3 5.453 9.623a4.6 4.6 0 003.956 2.688 33.393 33.393 0 017.641 1.569l1.088.187a71.656 71.656 0 0113.721 4.6c.549-.013 1.009.683 1.962-.015-4.964-2.967-10.194-4.906-15.347-7.076 9.208-.5 18.353-.859 27.506-.589 1.393.041 3.037-.445 4.138.78 1.734 1.929 4.014 2.395 6.383 2.774a26.84 26.84 0 0110.062 3.676c.676.421 2.211 1.121 1.269 2.279-1.629 2 .012 2.141 1.195 2.242.919.078 1.132.531 1.388 1.166a27.091 27.091 0 011.478 5.621c.416 2.413.247 4.1-2.586 4.362.234.834 1.291.328 1.34 1.187-.8.622-2.239-.223-2.667.962-.328.909.8 1.119 1.819 1.737-2.576.044-2.888-1.108-2.625-2.8.117-.755 1.194-1.31.463-2.229-1.067 1.2-2.441 1.362-3.97 1.37-7.317.042-14.635.154-21.952.293-.711.014-1.8-.6-2.053.771a8.846 8.846 0 005.491 2.75zm-75.736-.172a.583.583 0 01.954-.247l-.563.662c-.649 1.014-1.329 2.1-2.72 1.939-1.478-.168-2.106-1.4-2.468-2.628a16.618 16.618 0 011.37-13.263c1.432-2.558 2.462-2.477 4.064.132a3.519 3.519 0 00-2.544 1.382 12.7 12.7 0 00-.94 10.771 1.939 1.939 0 002.843 1.252zm41.7 2.339c2.4-1.933 2.811-4.879 3.738-7.568.117 3.2-.707 5.994-3.277 8.058-2.524 2.078-4.819 2.1-7.006.078-4.473-4.141-3.705-14.462 1.369-17.82 1.172-.776 2.486-1.609 3.879-.2-4.67 3.03-6.19 11.757-2.9 16.218 1.103 1.503 2.433 2.039 4.193 1.233zm-54.551 1.744c-1.627.955-4.065 1.426-4.6.363-1.226-2.432-2.389-.979-3.644-.593-2.046.63-3.969.479-5.317-1.29-1.369-1.8-.849-3.735.261-5.472a6.116 6.116 0 014.721-2.672c.539-.065 1-.268 1.05-.889a.762.762 0 00-.77-.843c-2.243-.115-.931-1.259-.462-1.87a7.371 7.371 0 016.52-2.789c.592.022 1.3.2 1.485-.574.242-.994-.545-1.125-1.24-1.139-1.487-.029-1.137-.972-.851-1.756a3.1 3.1 0 013.306-2.26c2.173.119 4.578 2.177 4.816 4.258.167 1.458.417 2.74-2.108 2.211-4.3-.9-7.052 2.361-5.943 6.6.148.563.54 1.22.38 1.681-1.036 2.955.394 5.058 2.391 7.033zm100.543 1.95c-13.444-2.068-26.548 2.146-39.966.983 1.821-2.43 3.839-3.421 6.816-3 3.351.47 6.958 1.036 10.152.282 5.328-1.258 10.647-.841 15.962-1.241 2.7-.208 5.253-.295 7.027 2.975zM35.997 33.589c3.56.679 6.973 1.276 10.362 1.992 3.574.754 7.117 1.655 10.69 2.417 1.005.214 1.49.6 1.411 1.68-.1 1.323-1.068.856-1.7.818-4.753-.287-9.5-.666-14.253-.951-5.3-.318-5.3-.289-6.6-5.354a2.993 2.993 0 01.085-.603zM24.785 44.62c-2.518.9-3.891.753-6.682-.766-3.375-1.838-3.654-4.072-.772-6.641.427-.381.783-.727.587-1.256-.292-.79-.958-.5-1.5-.332-.445.137-.938.72-1.288.032a2.572 2.572 0 01.206-2.672 3.546 3.546 0 014.032-1.481c.766.169 1.773.232 1.724 1.471-.176 4.28 2.454 7.624 3.688 11.644zm96.422-.849c-1.608 1.222-2.856 1.346-4.409 0z"/><path d="M43.172 1.24H2.251l.015.23c9.8 1.005 19.614 1.9 29.393 3.08 3.262.4 6.157.371 8.786-1.861a13.464 13.464 0 012.727-1.449zm83.118 30.695c1.934-3.332.317-6.165-3.582-6.182-6.359-.029-12.719.015-19.078-.01a10.1 10.1 0 00-4.869 1.1l-.673.455-.969.893c-.471.737-1.566 1.3-.876 2.395a3.612 3.612 0 003.366 1.845c7.119-.129 14.239-.154 21.357-.248 1.775-.023 3.549-.162 5.324-.248zm-31.468-5.757c.628-.61.758-1.069-.3-1.352-.972-.261-1.915-.628-2.871-.947-2.835-.494-5.667-1.017-8.51-1.472a8.6 8.6 0 00-3.025-.165c-1.225.258.028.514.126.785l4.839 1.489a12.219 12.219 0 01-5.849-.66l-3.664-.692c.654 1.715 2.052 2 3.228 2.369a45.337 45.337 0 0012.5 1.909 6.423 6.423 0 003.526-1.264zM82.254 40.909c3.094 0 6.19.07 9.28-.036 1.069-.036 2.785.4 2.479-1.756-1-.085-2.856 1.163-2.16-1.527.222-.858-.9-.3-1.309-.6l-1.567-.048c-1.327-.065-2.653-.158-3.98-.187a2.969 2.969 0 00-2.743 4.154zm6.181-1.622c-.409.126-.967.139-.966-.307 0-.393.6-.4 1.005-.341.865-.124 1.689-.794 2.592-.223a.666.666 0 01-.023.624c-.796.692-1.717.367-2.608.247zm39.361-3.774c.195-.048.553-.085.559-.149.038-.465-.326-.394-.623-.393z"/><path d="M127.284 36.017c.714.354.754.031.545-.542-.45-.087-.633.094-.545.542zM98.441 18.092c1.7.455 2.885 2.779 5.1 1.338a1.256 1.256 0 01.32.455c.3 1.358 1.311 1.319 2.372 1.3 2.118-.029 4.236-.023 6.355 0 .966.01 1.8-.294 1.775-1.335-.025-1.059-.916-1.253-1.853-1.245a49.564 49.564 0 01-7.865-.392h5.967l-.008-.708a38.021 38.021 0 00-12.163.587zm-4.616 4.61a2.574 2.574 0 00.518-.078c.255-.082.253-.237 0-.309a1.247 1.247 0 00-.631-.04c-.237.065-.224.234.113.427zm35.441 12.299l.407-.181c-.137-.1-.264-.266-.416-.293-.106-.019-.245.145-.369.228z"/></svg>