<svg xmlns="http://www.w3.org/2000/svg" width="101.313" height="103.786"><defs><filter id="a" x="0" y="0" width="101.313" height="103.786" filterUnits="userSpaceOnUse"><feOffset dx="-10"/><feGaussianBlur stdDeviation="5" result="b"/><feFlood flood-opacity=".2"/><feComposite operator="in" in2="b"/><feComposite in="SourceGraphic"/></filter></defs><g filter="url(#a)"><path d="M29.647 15h54.218c2.567 0 4.647 1.78 4.647 3.976 0 0 .385 13.7 1.868 22.049s5.934 11.337 5.934 11.337-4.45 2.976-5.934 11.088-1.868 21.359-1.868 21.359c0 2.2-2.081 3.976-4.647 3.976H29.647c-2.566.001-4.647-1.78-4.647-3.976V18.976C25 16.78 27.081 15 29.647 15z" fill="#da1245"/></g><text transform="translate(37.98 40.909)" font-size="18" font-family="RussoOne-Regular,Russo One" fill="#fff"><tspan x="0" y="0">550</tspan></text><path d="M68.775 64.556a8.108 8.108 0 10-12.963-9.547q-3.616-.006-7.233.008a3.5 3.5 0 00-3.318 2.129c-.3.615-.558 1.251-.866 1.863a2.242 2.242 0 01-.687.929v-.357c-.009-.724-.085-.8-.824-.8-.59 0-1.179.006-1.769 0-.369-.006-.758.066-.689.5.1.62-.44 1.395.4 1.848a1.255 1.255 0 00.343.078l1.256.255c-.636.51-1.19.933-1.721 1.384a4.565 4.565 0 00-1.7 3.54c-.028 2.59-.011 5.181-.006 7.771a1.435 1.435 0 001.617 1.581h3.243c1.242 0 1.777-.5 1.727-1.751-.023-.556.173-.616.653-.614 5.189.017 10.378.01 15.567.01.772 0 .772 0 .779.755a1.44 1.44 0 001.6 1.6q1.68.008 3.361 0a1.455 1.455 0 001.644-1.674c0-2.532.013-5.063 0-7.595a4.72 4.72 0 00-.414-1.913zm-22.5-7.3a2.416 2.416 0 012.175-1.291q3.45-.017 6.9-.009a8.066 8.066 0 00-.6 3.052c0 .236.012.468.032.7h-9.666c.396-.844.727-1.678 1.162-2.455zm-1.977 3.581a.5.5 0 01.466-.171h10.159a8.121 8.121 0 002.942 4.724c-.478 0-.956-.008-1.433-.031a2 2 0 00-1.929.818c-.28.4-.548.431-.837.009a2.029 2.029 0 00-1.984-.827c-1.352.067-2.71.018-4.066.018-.211 0-.437.045-.59-.166a6.731 6.731 0 00-3.455-2.088c-.361-.134-.713-.295-1.127-.467a9.081 9.081 0 001.857-1.822zm-2.685-.5c-.3-.031-.263-.208-.27-.4-.01-.261.177-.2.318-.2.117-.006.234 0 .351 0 .77 0 .77 0 .716.832-.39-.096-.748-.199-1.112-.238zm-.878 3.832c.112-.159.257-.3.384-.444a.727.727 0 01.974-.193c.911.408 1.85.752 2.772 1.133.166.069.5.075.439.278a.613.613 0 01-.619.442c-.569-.018-1.139 0-1.709 0h-1.65a.84.84 0 01-.81-.478c-.162-.335.071-.529.217-.744zm3.927 9.743c-.063.8-.082.886-.805.888-1.077 0-2.155-.011-3.231.006-.5.008-.725-.191-.7-.7.019-.367 0-.735 0-1.146 1.3.718 2.679.324 4.006.421.364.024.785-.151.732.525zm1.431-1.477a1.988 1.988 0 011.687-.925q6.184-.016 12.369 0a2.129 2.129 0 011.709.927zm20.52 2.357h-2.409c-.268 0-.542-.011-.637-.3a2.171 2.171 0 01-.018-1.042c.023-.136.242-.071.373-.072.724-.005 1.449-.013 2.173 0a3.333 3.333 0 002.063-.415c.041.044.062.055.062.068.041 2.025.168 1.752-1.607 1.761zm-2.718-5.67c.272.38.567.181.852-.04a2.7 2.7 0 011.852-.415c.19.006.209.09.225.251a.99.99 0 01-1.015 1.162c-.412.013-.825.006-1.238 0-.318 0-.56.12-.569.453-.01.371.247.5.589.492.413-.005.825.006 1.238 0a1.9 1.9 0 001.94-1.877c.01-.168-.171-.467.224-.476s.228.3.233.464q.03.941 0 1.883a1.392 1.392 0 01-1.421 1.416c-1.081.018-2.161 0-3.242.009a.675.675 0 01-.564-.233c-.248-.278-.521-.534-.789-.792a2.964 2.964 0 00-2.123-.862h-12.26a2.747 2.747 0 00-2.234 1 2.264 2.264 0 01-2.187.894c-.661-.069-1.335 0-2-.016a1.406 1.406 0 01-1.473-1.486 65.664 65.664 0 010-1.883c0-.168-.1-.411.246-.4.306.009.211.218.22.372a1.9 1.9 0 002.12 1.988h1.12c.325 0 .538-.164.523-.5-.013-.3-.222-.441-.52-.442h-1.3a.936.936 0 01-.877-.49c-.334-.581-.139-.909.517-.927a2.25 2.25 0 011.531.493c.249.2.5.263.726.006.249-.289.111-.548-.15-.753a2.974 2.974 0 00-1.84-.681c-.648-.008-1.3-.021-1.945.006-.324.013-.4-.1-.383-.4.022-.469.006-.94.006-1.433 1.706.76 3.465.279 5.179.4.315.023.476-.255.651-.453.218-.247.4-.285.593 0a1.246 1.246 0 001.185.47c1.395-.024 2.79.015 4.184-.021a1.552 1.552 0 011.279.517c1.187 1.232.969 1.23 2.169 0a1.506 1.506 0 011.219-.516c.988.024 1.977.015 2.965.013a8.1 8.1 0 007.012.005 2.661 2.661 0 001.854-.528c0 .724.237 1.441-.088 1.845-.255.317-1 .1-1.521.082a3.668 3.668 0 00-2.407.588c-.268.206-.577.436-.306.816zm-1.028-3.269a6.849 6.849 0 116.849-6.849 6.857 6.857 0 01-6.848 6.851zm5.034-8.88l-4.956 4.956a.631.631 0 01-.893 0l-3.861-3.861a.632.632 0 01.893-.893l3.414 3.414 4.509-4.509a.632.632 0 11.893.893z" fill="#fff"/></svg>