<svg xmlns="http://www.w3.org/2000/svg" width="40" height="40"><defs><style>.a{fill:#da1245}</style></defs><path class="a" d="M40 27.07a12.959 12.959 0 00-9.468-12.459 15.273 15.273 0 10-28.414 8.426L.056 30.49l7.454-2.061a15.217 15.217 0 007.1 2.1A12.934 12.934 0 0033.649 38.2l6.294 1.741-1.743-6.292A12.883 12.883 0 0040 27.07zM7.88 25.895l-4.462 1.234 1.234-4.462-.281-.44a12.925 12.925 0 113.949 3.949zm28.7 10.688l-3.311-.916-.442.288a10.59 10.59 0 01-15.795-5.509 15.3 15.3 0 0013.413-13.412 10.59 10.59 0 015.509 15.795l-.288.442zm0 0"/><path class="a" d="M14.102 21.172h2.344v2.344h-2.344zm3.515-9.453a2.32 2.32 0 01-.763 1.73l-2.753 2.52v2.86h2.344V17l1.991-1.823a4.687 4.687 0 10-7.851-3.459h2.344a2.344 2.344 0 014.688 0zm0 0"/></svg>